<svg id="ადამიანის_უფლებები" data-name="ადამიანის უფლებები" xmlns="http://www.w3.org/2000/svg" width="43.595" height="40.426" viewBox="0 0 43.595 40.426">
  <path id="Path_83749" data-name="Path 83749" d="M169.977,118.7h12.312a1.277,1.277,0,0,0,1.277-1.277V114.69a7.4,7.4,0,0,0-1.873-4.927,7.24,7.24,0,0,1-11.12,0,7.4,7.4,0,0,0-1.873,4.927v2.736A1.277,1.277,0,0,0,169.977,118.7Z" transform="translate(-154.336 -100.417)" fill="#19bbc8"/>
  <path id="Path_83750" data-name="Path 83750" d="M205.53,9.394a4.7,4.7,0,1,0-4.7-4.7A4.7,4.7,0,0,0,205.53,9.394Z" transform="translate(-183.733)" fill="#19bbc8"/>
  <path id="Path_83751" data-name="Path 83751" d="M14.833,154.891a3.386,3.386,0,1,0-4.788,4.788l3.079,3.079a1.277,1.277,0,1,1-1.806,1.806h0l-5.472-5.472a1.277,1.277,0,0,1-.374-.9V147.336A2.734,2.734,0,0,0,2.736,144.6H1.277A1.277,1.277,0,0,0,0,145.877v16.416a1.277,1.277,0,0,0,.374.9l7.834,7.834v3.575a1.277,1.277,0,0,0,1.277,1.277h9.576a1.277,1.277,0,0,0,1.277-1.277V163.758a8.063,8.063,0,0,0-2.377-5.739Z" transform="translate(0 -135.457)" fill="#19bbc8"/>
  <path id="Path_83752" data-name="Path 83752" d="M292.193,144.6h-1.459A2.734,2.734,0,0,0,288,147.336v10.853a1.277,1.277,0,0,1-.374.9l-5.472,5.472h0a1.277,1.277,0,1,1-1.806-1.806l3.079-3.079a3.386,3.386,0,1,0-4.788-4.788l-3.128,3.129a8.063,8.063,0,0,0-2.377,5.739v10.847a1.277,1.277,0,0,0,1.277,1.277h9.576a1.277,1.277,0,0,0,1.277-1.277V171.03L293.1,163.2a1.277,1.277,0,0,0,.374-.9V145.877A1.277,1.277,0,0,0,292.193,144.6Z" transform="translate(-249.876 -135.457)" fill="#19bbc8"/>
</svg>
