<svg id="სახელმწიფო_სერვისები" data-name="სახელმწიფო სერვისები" xmlns="http://www.w3.org/2000/svg" width="43.917" height="40.385" viewBox="0 0 43.917 40.385">
  <path id="ic_account_balance_24px" d="M3.453,8.217V13.83h2.18V8.217Zm4.36,0V13.83h2.18V8.217ZM2,17.84H15.807V15.434H2ZM12.174,8.217V13.83h2.18V8.217ZM8.9,1,2,5.009v1.6H15.807v-1.6Z" transform="translate(11.357 6.35)" fill="#19bbc8"/>
  <g id="Group_162853" data-name="Group 162853" transform="translate(-659 -1028.421)">
    <path id="ic_important_devices_24px" d="M42.087,20.193l-9.149-.02a1.937,1.937,0,0,0-1.83,2.019V40.366a1.937,1.937,0,0,0,1.83,2.019h9.149a1.937,1.937,0,0,0,1.83-2.019V22.192A1.919,1.919,0,0,0,42.087,20.193Zm0,18.153H32.938V24.212h9.149ZM36.6,2H3.66A3.85,3.85,0,0,0,0,6.038V30.269a3.862,3.862,0,0,0,3.66,4.038H16.469v4.038h-3.66v4.038H27.448V38.346h-3.66V34.308h3.66V30.269H3.66V6.038H36.6v10.1h3.66V6.038A3.862,3.862,0,0,0,36.6,2Z" transform="translate(659 1026.421)" fill="#19bbc8"/>
    <path id="Path_83753" data-name="Path 83753" d="M-21450.73,6571.555l2.316,2.078,2.852-5.274" transform="translate(22144.328 -5513.459)" fill="none" stroke="#19bbc8" stroke-linecap="round" stroke-linejoin="round" stroke-width="1.5"/>
  </g>
</svg>
