<svg xmlns="http://www.w3.org/2000/svg" width="37.337" height="42.803" viewBox="0 0 37.337 42.803">
  <g id="ადგილობრივი_თვითმმართველობა" data-name="ადგილობრივი თვითმმართველობა" transform="translate(0.505 0.498)">
    <path id="Union_12" data-name="Union 12" d="M28.641,15.227H18.134q-8.372,0-16.744,0c-.966,0-1.566-.628-1.344-1.511a2.069,2.069,0,0,1,.747-1.037C4.349,10,7.923,7.344,11.492,4.685,13.434,3.236,15.381,1.8,17.311.333a1.249,1.249,0,0,1,1.705.005Q27.3,6.53,35.594,12.694l.142.1a1.387,1.387,0,0,1,.558,1.478,1.146,1.146,0,0,1-1.19.944q-1.615.009-3.23.007Z" transform="translate(0 0)" fill="#19bbc8" stroke="rgba(0,0,0,0)" stroke-miterlimit="10" stroke-width="1"/>
    <path id="Path_83765" data-name="Path 83765" d="M778.374,693.648q0-3.226,0-6.453c0-.93.182-1.086,1.236-1.088.716,0,1.432,0,2.148,0,1.268,0,1.414.123,1.414,1.195q0,6.2,0,12.395c0,.213,0,.426,0,.639.006.571-.281.871-.982.857-.888-.018-1.777,0-2.666,0-.962,0-1.148-.165-1.15-1.022Q778.37,696.906,778.374,693.648Z" transform="translate(-774.069 -667.984)" fill="#19bbc8"/>
    <path id="Path_83766" data-name="Path 83766" d="M859.032,693.632q0,3.258,0,6.517c0,.849-.2,1.019-1.143,1.022-.856,0-1.712.005-2.568,0-.837-.006-1.042-.193-1.043-.98q-.005-5.367,0-10.734c0-.809-.008-1.619,0-2.428.009-.739.241-.932,1.1-.937s1.712-.006,2.568,0,1.076.2,1.079.96C859.037,689.244,859.032,691.438,859.032,693.632Z" transform="translate(-838.274 -667.968)" fill="#19bbc8"/>
    <path id="Path_83767" data-name="Path 83767" d="M934.831,693.622q0,3.29,0,6.58c0,.834-.16.968-1.114.971-.911,0-1.821,0-2.731,0-.612,0-.912-.257-.912-.778q0-6.772,0-13.543c0-.491.306-.753.869-.758,1.009-.009,2.018-.007,3.026,0,.673,0,.87.354.867.882C934.825,689.193,934.831,691.408,934.831,693.622Z" transform="translate(-902.467 -667.972)" fill="#19bbc8"/>
    <rect id="Rectangle_147964" data-name="Rectangle 147964" width="36.659" height="6.207" rx="1" transform="translate(0 36.098)" fill="#19bbc8"/>
  </g>
</svg>
