<svg id="საჯარო_მმართველობა" data-name="საჯარო მმართველობა" xmlns="http://www.w3.org/2000/svg" width="44.722" height="43.773" viewBox="0 0 44.722 43.773">
  <path id="Path_83754" data-name="Path 83754" d="M12.93,6.8a10.065,10.065,0,0,0,6.438,1.267c.756-.11,1.519-.186,2.269-.327A4.782,4.782,0,0,0,24.046,6.47,4.816,4.816,0,0,1,26.5,5.159a2.379,2.379,0,0,1,1.487.15,1.016,1.016,0,0,1,.37,1.746c-.067.075-.131.152-.222.258l.1.051c.534.281.621.462.38,1.03a2.291,2.291,0,0,1-.519.755,11.19,11.19,0,0,1-1.272,1.039c-1.009.7-2.035,1.385-3.061,2.064a5.249,5.249,0,0,1-2.284.8c-1.886.244-3.761.572-5.642.853-.6.091-1.211.15-1.818.211a4.509,4.509,0,0,1-2.388-.4L4.435,10.372c-.337-.157-.678-.306-1.014-.466A7.177,7.177,0,0,0,.782,9.17.759.759,0,0,1,0,8.345c0-.052,0-.1,0-.155q0-3.152,0-6.3c0-.548.14-.749.663-.9A21.193,21.193,0,0,1,7.76.026a11.549,11.549,0,0,1,4.286,1.147,5.816,5.816,0,0,1,.584.287,7.5,7.5,0,0,0,3.65.939,20.208,20.208,0,0,1,4.936.865,2.429,2.429,0,0,1,1.508,1.112,1.1,1.1,0,0,1,.105.953,2.315,2.315,0,0,1-1.644,1.736,2.408,2.408,0,0,1-.646.035c-1.455-.094-2.908-.213-4.363-.293-.907-.05-1.816-.052-2.725-.066A3.749,3.749,0,0,0,12.93,6.8Z" transform="matrix(0.999, 0.035, -0.035, 0.999, 5.061, 28.636)" fill="#19bbc8"/>
  <path id="Path_83755" data-name="Path 83755" d="M763.849,564.8q-7.879,0-15.758,0c-.91,0-1.473-.519-1.265-1.249a1.74,1.74,0,0,1,.7-.857c3.347-2.219,6.711-4.413,10.07-6.614,1.827-1.2,3.659-2.386,5.476-3.6a1.3,1.3,0,0,1,1.6,0q7.794,5.123,15.6,10.223l.133.086a1.083,1.083,0,0,1,.525,1.222,1.059,1.059,0,0,1-1.12.782c-2.027.008-4.054,0-6.081,0Zm-.046-2.322a3.4,3.4,0,1,0-3.343-3.5A3.407,3.407,0,0,0,763.8,562.476Z" transform="translate(-736.251 -552.202)" fill="#19bbc8"/>
  <path id="Path_83756" data-name="Path 83756" d="M533.842,816.412q0,2.422,0,4.844c0,.591-.238.834-.825.837q-1.1.006-2.2,0c-.574,0-.816-.245-.816-.81q0-4.86,0-9.72c0-.578.233-.815.805-.817q1.118,0,2.236,0c.566,0,.8.245.8.822Q533.843,813.989,533.842,816.412Z" transform="translate(-529.996 -782.216)" fill="#19bbc8"/>
  <path id="Path_83757" data-name="Path 83757" d="M795.287,818.962h27.537c.874,0,.961.088.962.969,0,.476,0,.951,0,1.427,0,.671-.131.8-.805.8q-4.89,0-9.779,0c-.3,0-.6-.011-.9,0a63.6,63.6,0,0,1-11.563-.9,14.8,14.8,0,0,1-3.31-1.176c-.743-.3-1.449-.689-2.172-1.039Z" transform="translate(-779.599 -790.746)" fill="#19bbc8"/>
  <path id="Path_83758" data-name="Path 83758" d="M778.374,692.345q0-2.669,0-5.338c0-.769.13-.9.882-.9.511,0,1.022,0,1.533,0,.905,0,1.009.1,1.009.988q0,5.127,0,10.254c0,.176,0,.352,0,.529,0,.472-.2.721-.7.709-.634-.015-1.268,0-1.9,0-.686,0-.82-.136-.821-.846Q778.37,695.04,778.374,692.345Z" transform="translate(-764.501 -671.942)" fill="#19bbc8"/>
  <path id="Path_83759" data-name="Path 83759" d="M857.7,692.328q0,2.7,0,5.391c0,.7-.141.843-.823.845-.617,0-1.233,0-1.85,0s-.75-.16-.751-.811q0-4.44,0-8.88c0-.67-.006-1.339,0-2.009.007-.611.174-.771.8-.776s1.233,0,1.85,0,.776.168.777.794C857.705,688.7,857.7,690.514,857.7,692.328Z" transform="translate(-832.372 -671.925)" fill="#19bbc8"/>
  <path id="Path_83760" data-name="Path 83760" d="M933.478,692.321q0,2.721,0,5.444c0,.69-.115.8-.8.8-.652,0-1.3,0-1.955,0a.57.57,0,0,1-.653-.643q0-5.6,0-11.2a.564.564,0,0,1,.622-.627c.722-.007,1.444-.006,2.167,0,.482,0,.623.293.621.73C933.474,688.657,933.478,690.489,933.478,692.321Z" transform="translate(-900.152 -671.929)" fill="#19bbc8"/>
  <path id="Path_83761" data-name="Path 83761" d="M1006.024,692.375q0-2.748,0-5.5c0-.617.165-.781.78-.786.634,0,1.269.006,1.9,0,.472-.007.724.181.723.684q-.007,5.575,0,11.151c0,.438-.2.649-.642.645-.669-.006-1.339,0-2.008,0-.592,0-.753-.161-.754-.748Q1006.019,695.1,1006.024,692.375Z" transform="translate(-968.071 -671.928)" fill="#19bbc8"/>
</svg>
