<svg id="phone" xmlns="http://www.w3.org/2000/svg" width="20.114" height="20.114" viewBox="0 0 20.114 20.114">
  <path id="Path_23" data-name="Path 23" d="M18.964,13.074l-3.943-1.75a1.938,1.938,0,0,0-2.293.556h0l-1.19,1.49A15.622,15.622,0,0,1,6.744,8.577L8.233,7.388a1.937,1.937,0,0,0,.558-2.3L7.04,1.149A1.935,1.935,0,0,0,4.786.062L1.452.928A1.942,1.942,0,0,0,.019,3.072,20.083,20.083,0,0,0,17.042,20.094a1.913,1.913,0,0,0,.266.019,1.941,1.941,0,0,0,1.877-1.451l.865-3.335A1.927,1.927,0,0,0,18.964,13.074Z" transform="translate(0 0.001)" fill="#454545"/>
</svg>
