<svg id="phone" xmlns="http://www.w3.org/2000/svg" width="10.025" height="10.025" viewBox="0 0 10.025 10.025">
  <path id="Path_23" data-name="Path 23" d="M9.452,6.516,7.487,5.644a.966.966,0,0,0-1.143.277h0l-.593.742A7.786,7.786,0,0,1,3.362,4.275L4.1,3.682a.966.966,0,0,0,.278-1.144L3.509.572A.964.964,0,0,0,2.385.031L.724.462A.968.968,0,0,0,.01,1.531a10.01,10.01,0,0,0,8.485,8.484.954.954,0,0,0,.133.009A.967.967,0,0,0,9.563,9.3l.431-1.662A.961.961,0,0,0,9.452,6.516Z" transform="translate(0 0.001)" fill="#fff"/>
</svg>
