<svg xmlns="http://www.w3.org/2000/svg" width="18" height="19.875" viewBox="0 0 18 19.875">
  <path id="Icon_ionic-md-share" data-name="Icon ionic-md-share" d="M17.242,15.629a2.733,2.733,0,0,0-1.956.749l-7.17-4.145a3.358,3.358,0,0,0,.1-.7,3.356,3.356,0,0,0-.1-.7l7.07-4.095a3,3,0,1,0-.953-2.2,3.338,3.338,0,0,0,.1.7L7.264,9.337a3.018,3.018,0,0,0-2.056-.8,2.969,2.969,0,0,0-2.958,3,3.019,3.019,0,0,0,5.064,2.2l7.12,4.145a2.505,2.505,0,0,0-.1.649,2.908,2.908,0,1,0,2.908-2.9Z" transform="translate(-2.25 -1.547)" fill="#757575"/>
</svg>
