<svg xmlns="http://www.w3.org/2000/svg" width="168.975" height="59.888" viewBox="0 0 168.975 59.888">
  <g id="Group_162826" data-name="Group 162826" transform="translate(-59.509 -9.637)">
    <g id="Group_162828" data-name="Group 162828" transform="translate(70.63 39.569)">
      <g id="Group_162827" data-name="Group 162827" transform="translate(0)">
        <g id="Group_162826-2" data-name="Group 162826">
          <path id="Path_83717" data-name="Path 83717" d="M177.026,298.64a.213.213,0,0,0-.012-.088.217.217,0,0,0-.091-.085c-.083-.053-.167-.1-.246-.162a2.392,2.392,0,0,1-.863-2.178c0-.007,0-.013,0-.021.053-.69.066-1.38.063-2.073,0-.508-.012-1.014-.012-1.52a27.594,27.594,0,0,0-.129-3.685,4.928,4.928,0,0,0-1.652-3.066,5.1,5.1,0,0,0-2.944-1.171.152.152,0,0,1-.093-.028c-.132-.119.147-.207.2-.221.167-.038.332-.081.5-.126a5.464,5.464,0,0,0,3.032-1.966,5.77,5.77,0,0,0,.9-1.9,10.684,10.684,0,0,0,.289-4.842,7.577,7.577,0,0,0-1.111-2.724,6.989,6.989,0,0,0-1.328-1.485,7.132,7.132,0,0,0-2.795-1.407,12.991,12.991,0,0,0-3.256-.232H156.111v29.313h7.568s0-11.768,0-11.768h1.428a3.891,3.891,0,0,1,1.84.249,2.421,2.421,0,0,1,1.187,2.381c-.009.988-.011,1.971-.011,2.959,0,2.089-.261,4.292.858,6.179q3.819,0,7.638,0a2.769,2.769,0,0,0,.4-.006C177.033,298.858,177.028,298.748,177.026,298.64Zm-8.673-20.83v1.424a2.9,2.9,0,0,1-2.574,2.866h-2.1V275.16h2.084a2.541,2.541,0,0,1,2.59,2.65Z" transform="translate(-156.111 -269.656)" fill="#fff"/>
        </g>
      </g>
    </g>
    <g id="Group_162830" data-name="Group 162830" transform="translate(93.28 38.979)">
      <g id="Group_162829" data-name="Group 162829">
        <path id="Path_83718" data-name="Path 83718" d="M365.4,275.685v-2.758a2.75,2.75,0,0,0-2.115-3.2,2.439,2.439,0,0,0-2.252,1.893,7.309,7.309,0,0,0-.186,2.051q.02,5.525.008,11.053c0,1.625-.02,4.522,1.939,5.148,1.793.572,2.884-2.088,2.728-3.481v-3.716H373a30.661,30.661,0,0,1-.153,5.4,8.226,8.226,0,0,1-6.015,6.553,14.226,14.226,0,0,1-5.338.353,10.5,10.5,0,0,1-4.985-1.685c-1.956-1.434-2.758-3.648-3.1-6.007-.254-1.776-.324-3.669-.439-5.444s-.105-3.573-.068-5.342a22.5,22.5,0,0,1,1.028-6.039,7.465,7.465,0,0,1,2.018-3.528,8.239,8.239,0,0,1,1.261-.977,10.284,10.284,0,0,1,5.087-1.4,16.257,16.257,0,0,1,5.276.543,7.743,7.743,0,0,1,5.16,7.024v3.54Z" transform="translate(-352.881 -264.536)" fill="#fff"/>
      </g>
    </g>
    <g id="Group_162832" data-name="Group 162832" transform="translate(59.509 39.569)">
      <g id="Group_162831" data-name="Group 162831">
        <rect id="Rectangle_147963" data-name="Rectangle 147963" width="7.845" height="29.319" fill="#fff"/>
      </g>
    </g>
    <g id="Group_162834" data-name="Group 162834" transform="translate(59.509 9.637)">
      <g id="Group_162833" data-name="Group 162833">
        <circle id="Ellipse_75" data-name="Ellipse 75" cx="12.146" cy="12.146" r="12.146" fill="#fff"/>
      </g>
    </g>
    <g id="Group_162836" data-name="Group 162836" transform="translate(88.601 21.357)">
      <g id="Group_162835" data-name="Group 162835">
        <circle id="Ellipse_76" data-name="Ellipse 76" cx="6.482" cy="6.482" r="6.482" fill="#fff"/>
      </g>
    </g>
    <g id="Group_162838" data-name="Group 162838" transform="translate(106.365 31.51)">
      <g id="Group_162837" data-name="Group 162837">
        <circle id="Ellipse_77" data-name="Ellipse 77" cx="1.876" cy="1.876" r="1.876" fill="#fff"/>
      </g>
    </g>
    <g id="Group_162839" data-name="Group 162839" transform="translate(129.874 20.965)">
      <path id="Path_83719" data-name="Path 83719" d="M671.791,117.945h3.746l.107-.266a11.23,11.23,0,0,0,.856-4.185v-2.164c0-2.715-1.487-3.285-2.734-3.285-1.366,0-2.995.57-2.995,3.285v2.164a10.407,10.407,0,0,0,.909,4.2Zm1.875-.322-.158-.3a8.153,8.153,0,0,1-.877-3.829v-2.164c0-1.4.573-1.591,1.134-1.591.24,0,.878,0,.878,1.591v2.164a8.356,8.356,0,0,1-.826,3.833Z" transform="translate(-670.771 -108.044)" fill="#fff"/>
      <path id="Path_83720" data-name="Path 83720" d="M729.1,118.874a2.7,2.7,0,0,0,3.037-3v-1.32a2.685,2.685,0,0,0-3.027-2.979,3.644,3.644,0,0,0-1.219.23V111.4c0-.789.307-.789.49-.789h3.138v-1.694H728.36c-1.43,0-2.218.874-2.218,2.462v4.5A2.666,2.666,0,0,0,729.1,118.874Zm1.23-4.188v1.209c0,.913-.338,1.285-1.166,1.285-.854,0-1.219-.408-1.219-1.364v-2.242a2.8,2.8,0,0,1,1.155-.23C729.967,113.343,730.335,113.745,730.335,114.686Z" transform="translate(-719.768 -108.815)" fill="#fff"/>
      <path id="Path_83721" data-name="Path 83721" d="M784.755,117.945h2.264l-.626-.707a5.345,5.345,0,0,1-1.585-3.45v-2.444c0-1.618.6-1.618.825-1.618.512,0,.985.138.985,1.137V114.7h1.823v-3.792c0-1.185.536-1.185.793-1.185.3,0,1.012,0,1.012,1.618v2.444a5.175,5.175,0,0,1-1.743,3.436l-.694.72h2.36l.123-.115a5.368,5.368,0,0,0,1.8-4.036v-2.449c0-2.728-1.553-3.3-2.856-3.3a2.084,2.084,0,0,0-1.671.907,2.256,2.256,0,0,0-1.825-.907c-1.276,0-2.8.573-2.8,3.3v2.444a5.522,5.522,0,0,0,1.689,4.032Z" transform="translate(-770.03 -108.044)" fill="#fff"/>
      <path id="Path_83722" data-name="Path 83722" d="M870.435,118.1a2.685,2.685,0,0,0,3-3.006v-.66a2.369,2.369,0,0,0-.991-1.993,2.483,2.483,0,0,0,.779-1.823c0-1.663-.988-2.578-2.782-2.578a3.2,3.2,0,0,0-1.764.445,2.175,2.175,0,0,0-.916,1.434,5.5,5.5,0,0,0,.136,1.916h1.474l.107-1.284c.017-.5.2-.824.963-.827.845,0,.916.375.916.729a1.314,1.314,0,0,1-.813,1.4h-.831V113.6h1.283a.753.753,0,0,1,.633.868v.607c0,.938-.357,1.338-1.193,1.338-.559,0-1.131-.161-1.144-1.348v-1.988h-1.5a6.819,6.819,0,0,0-.211,1.052c-.229,1.246-.144,2.759,1.028,3.517A3.35,3.35,0,0,0,870.435,118.1Z" transform="translate(-844.834 -108.044)" fill="#fff"/>
      <path id="Path_83723" data-name="Path 83723" d="M926.96,118.915c1.344,0,2.947-.572,2.947-3.3v-.839a4.619,4.619,0,0,0-1.439-3.32,3.358,3.358,0,0,1-1.2-2.076l0-.423h-1.811v.425a4.012,4.012,0,0,0,1.46,3,3.076,3.076,0,0,1,1.184,2.212v.971c0,1.654-.8,1.654-1.14,1.654-.59,0-1.192-.19-1.192-1.6v-.557l.479-2.026h-1.941l-.4,1.776v.781C923.907,118.338,925.567,118.915,926.96,118.915Z" transform="translate(-894.768 -108.855)" fill="#fff"/>
      <path id="Path_83724" data-name="Path 83724" d="M984.251,118.874a3.065,3.065,0,0,0,2.43-1.012,3.92,3.92,0,0,0,.857-2.654,2.413,2.413,0,0,0-1.167-2.1,2.034,2.034,0,0,0,.9-1.616,1.752,1.752,0,0,0-1.018-1.741c-.419-.193-.53-.353-.53-.416v-.425H983.9l0,.422a1.609,1.609,0,0,0,.986,1.5c.465.234.525.489.525.684,0,.177,0,.707-1.065,1.132h-.824v1.71h1.542c.225,0,.6,0,.613.9a2.517,2.517,0,0,1-.391,1.4,1.113,1.113,0,0,1-1.028.519,1.331,1.331,0,0,1-1.117-.55,3.105,3.105,0,0,1-.461-1.859V112.6a9.646,9.646,0,0,1,.687-3.112l.206-.57h-2.048l-.1.28a9.8,9.8,0,0,0-.621,3.4v2.18a4.352,4.352,0,0,0,.955,3.1A3.328,3.328,0,0,0,984.251,118.874Z" transform="translate(-945.11 -108.815)" fill="#fff"/>
      <path id="Path_83725" data-name="Path 83725" d="M1045.046,117.945h3.746l.107-.266a11.23,11.23,0,0,0,.855-4.185v-2.164c0-2.715-1.487-3.285-2.734-3.285-1.366,0-2.995.57-2.995,3.285v2.164a10.408,10.408,0,0,0,.908,4.2Zm1.876-.322-.158-.3a8.151,8.151,0,0,1-.877-3.829v-2.164c0-1.4.573-1.591,1.134-1.591.24,0,.878,0,.878,1.591v2.164a8.357,8.357,0,0,1-.826,3.833Z" transform="translate(-1001.059 -108.044)" fill="#fff"/>
      <path id="Path_83726" data-name="Path 83726" d="M1101.479,118.1a2.692,2.692,0,0,0,3.032-2.99v-4.676c0-.894-.359-2.393-2.76-2.393-1.763,0-2.734.888-2.734,2.5v.054l.463,1.79h1.933l-.609-1.791c.016-.62.264-.864.867-.864,1.086,0,1.086.441,1.086.678v4.66a1.449,1.449,0,0,1-.317,1.048,1.265,1.265,0,0,1-.92.289h-.009c-.554,0-1.12-.149-1.144-1.238l.768-2.1H1099.1l-.587,1.961v.062a3.052,3.052,0,0,0,.766,2.246A2.985,2.985,0,0,0,1101.479,118.1Z" transform="translate(-1049.277 -108.044)" fill="#fff"/>
      <path id="Path_83727" data-name="Path 83727" d="M1158.735,118.915c1.369,0,3-.631,3-3.639v-.292c-.009-2.179-1.008-2.985-1.949-3.261a1.8,1.8,0,0,0-.6-1.695.764.764,0,0,1-.4-.642v-.425h-1.956l.005.43a1.944,1.944,0,0,0,.925,1.732.522.522,0,0,1,.306.534c-1.1.22-2.326.985-2.326,3.3v.317C1155.735,118.283,1157.366,118.915,1158.735,118.915Zm1.193-3.534c0,1.839-.836,1.839-1.193,1.839-.341,0-1.139,0-1.139-1.866v-.448c0-1.409.59-1.617,1.106-1.634.611.024,1.23.229,1.226,1.527Z" transform="translate(-1099.909 -108.855)" fill="#fff"/>
      <path id="Path_83728" data-name="Path 83728" d="M1213.556,117.945h3.747l.107-.266a11.233,11.233,0,0,0,.855-4.185v-2.164c0-2.715-1.487-3.285-2.734-3.285-1.366,0-2.995.57-2.995,3.285v2.164a10.414,10.414,0,0,0,.908,4.2Zm1.876-.322-.158-.3a8.151,8.151,0,0,1-.877-3.829v-2.164c0-1.4.573-1.591,1.134-1.591.24,0,.879,0,.879,1.591v2.164a8.349,8.349,0,0,1-.826,3.833Z" transform="translate(-1150.172 -108.044)" fill="#fff"/>
      <path id="Path_83729" data-name="Path 83729" d="M1270.866,118.915a2.737,2.737,0,0,0,3.037-3.085v-.237a3.054,3.054,0,0,0-.83-2.275,1.646,1.646,0,0,1-.572-.98l.551-1.7h-1.994l-.32,1.53v.048a2.915,2.915,0,0,0,.79,1.853,2.14,2.14,0,0,1,.567,1.443v.4c0,.919-.365,1.311-1.219,1.311-.543,0-1.166-.188-1.166-1.654v-6.605H1267.9v6.394C1267.9,118.3,1269.514,118.915,1270.866,118.915Z" transform="translate(-1199.165 -108.855)" fill="#fff"/>
      <path id="Path_83730" data-name="Path 83730" d="M1327.76,118.915c1.344,0,2.947-.572,2.947-3.3v-.839a4.619,4.619,0,0,0-1.439-3.32,3.36,3.36,0,0,1-1.2-2.076l0-.423h-1.811v.425a4.012,4.012,0,0,0,1.46,3,3.076,3.076,0,0,1,1.184,2.212v.971c0,1.654-.8,1.654-1.14,1.654-.589,0-1.192-.19-1.192-1.6v-.557l.479-2.026h-1.941l-.4,1.776v.781C1324.707,118.338,1326.367,118.915,1327.76,118.915Z" transform="translate(-1249.43 -108.855)" fill="#fff"/>
      <path id="Path_83731" data-name="Path 83731" d="M671.78,283.386l-.291.228.928,1.6.381-.278a2.689,2.689,0,0,1,2.317-.545c.83.221,1,.407,1.028.443l.055.341h2.318l-.141-.533c-.242-.917-1.151-1.548-2.7-1.875l-1.047-.119a4.758,4.758,0,0,1-2-3.824V278.3c0-1.156.487-1.311.964-1.311a1.027,1.027,0,0,1,.909.454,4.77,4.77,0,0,0-.174,1.174v.628c0,2.774,1.548,3.449,2.846,3.527l.026,0,.026,0c1.33-.084,2.915-.764,2.915-3.527v-.786c0-2.589-1.6-3.132-2.942-3.132a2.652,2.652,0,0,0-1.947.678,2.55,2.55,0,0,0-1.708-.731c-1.264,0-2.771.535-2.771,3.085v.575a5.706,5.706,0,0,0,1.687,4.034A3.6,3.6,0,0,0,671.78,283.386Zm6.5-3.957c0,1.326-.571,1.583-1.081,1.643-.323-.037-1.037-.186-1.033-1.8v-.812c0-1.273.524-1.444,1.033-1.444.324,0,1.081,0,1.081,1.681Z" transform="translate(-670.771 -256.024)" fill="#fff"/>
      <path id="Path_83732" data-name="Path 83732" d="M759.17,280.265h-1.942l-.4,1.776v.781c0,2.746,1.66,3.322,3.053,3.322,1.344,0,2.947-.572,2.947-3.3v-.839a4.619,4.619,0,0,0-1.439-3.32,3.358,3.358,0,0,1-1.2-2.076l0-.423h-1.811v.425a4.012,4.012,0,0,0,1.46,3,3.076,3.076,0,0,1,1.184,2.212v.971c0,1.655-.8,1.655-1.14,1.655-.59,0-1.192-.19-1.192-1.6v-.557Z" transform="translate(-746.924 -256.835)" fill="#fff"/>
      <path id="Path_83733" data-name="Path 83733" d="M855.248,280.538c0-2.052-1.028-3.137-2.963-3.137a2.2,2.2,0,0,0-1.814.938,2.616,2.616,0,0,0-1.351-.845,9.875,9.875,0,0,1,3.635-.525h.45v-1.695h-.425c-2.666,0-4.484.469-5.558,1.435a4.973,4.973,0,0,0-1.608,3.856v.628a4.621,4.621,0,0,0,2.087,3.9l.111.08h2.521l-.855-.745c-1.33-1.159-2-2.248-2-3.237v-.786c0-1.169.485-1.327.958-1.327.764,0,1.076.329,1.076,1.137v2.272h1.871v-2.27c0-1.006.483-1.144,1-1.144.478,0,.967.165.967,1.332v.739a4.758,4.758,0,0,1-1.939,3.289l-.825.741h2.52l.113-.083a4.652,4.652,0,0,0,2.035-3.9Z" transform="translate(-825.487 -256.024)" fill="#fff"/>
      <path id="Path_83734" data-name="Path 83734" d="M934.529,277.773v.054l.463,1.791h1.933l-.609-1.791c.016-.62.264-.864.867-.864,1.086,0,1.086.458,1.086.678v4.66a1.45,1.45,0,0,1-.317,1.048,1.266,1.266,0,0,1-.92.289h-.009c-.554,0-1.12-.149-1.144-1.238l.767-2.1h-2.031l-.587,1.961v.062a3.05,3.05,0,0,0,.765,2.246,2.985,2.985,0,0,0,2.2.76,2.692,2.692,0,0,0,3.032-2.99v-4.676c0-.894-.359-2.393-2.761-2.393C935.5,275.274,934.529,276.161,934.529,277.773Z" transform="translate(-903.724 -256.024)" fill="#fff"/>
      <path id="Path_83735" data-name="Path 83735" d="M1000.427,277.958a2.41,2.41,0,0,0-2.691-2.652,2.36,2.36,0,0,0-1.711.755,2.536,2.536,0,0,0-1.954-.787c-1.289,0-2.824.557-2.824,3.211v.734a3.547,3.547,0,0,0,.85,2.6,2.8,2.8,0,0,0,2.059.74h.02a2.591,2.591,0,0,0,1.906-.7,3.617,3.617,0,0,0,.845-2.641v-.593a4.685,4.685,0,0,0-.133-1.265,1.184,1.184,0,0,1,.821-.366c.512,0,.985.146.985,1.206a1.729,1.729,0,0,1-.838,1.479l-.6.02v1.633h1.084c.15,0,.251.374.251.931a1.222,1.222,0,0,1-.472.945,2.023,2.023,0,0,1-1.391.435h-.394a2.047,2.047,0,0,1-1.058-.28.97.97,0,0,1-.369-.3v-.41h-1.93v.425a1.966,1.966,0,0,0,1.074,1.61,3.99,3.99,0,0,0,2.214.641h.532a3.8,3.8,0,0,0,2.622-.874,2.868,2.868,0,0,0,1-2.2v0a2.6,2.6,0,0,0-.852-2.044A2.89,2.89,0,0,0,1000.427,277.958Zm-7.321,1.261v-.734c0-1.522.69-1.522.985-1.522s1.027,0,1.027,1.549v.707c0,1.639-.672,1.639-.958,1.639C993.844,280.858,993.106,280.858,993.106,279.219Z" transform="translate(-954.354 -256.024)" fill="#fff"/>
      <path id="Path_83736" data-name="Path 83736" d="M1081.979,275.274a2.085,2.085,0,0,0-1.671.906,2.256,2.256,0,0,0-1.824-.906c-1.277,0-2.8.573-2.8,3.3v2.443a5.523,5.523,0,0,0,1.689,4.032l.124.124h2.264l-.626-.707a5.345,5.345,0,0,1-1.585-3.45v-2.443c0-1.618.6-1.618.825-1.618.512,0,.985.138.985,1.137v3.839h1.823v-3.792c0-1.185.536-1.185.794-1.185.3,0,1.011,0,1.011,1.618v2.443a5.176,5.176,0,0,1-1.743,3.436l-.694.72h2.36l.123-.115a5.367,5.367,0,0,0,1.8-4.036v-2.449C1084.836,275.847,1083.282,275.274,1081.979,275.274Z" transform="translate(-1029.075 -256.024)" fill="#fff"/>
      <path id="Path_83737" data-name="Path 83737" d="M1166.521,277.4a2.2,2.2,0,0,0-1.814.938,2.616,2.616,0,0,0-1.351-.845,9.875,9.875,0,0,1,3.635-.525h.451v-1.695h-.425c-2.666,0-4.484.469-5.558,1.435a4.973,4.973,0,0,0-1.608,3.856v.628a4.621,4.621,0,0,0,2.087,3.9l.111.08h2.521l-.855-.745c-1.33-1.159-2-2.248-2-3.237v-.786c0-1.169.484-1.327.958-1.327.764,0,1.075.329,1.075,1.137v2.272h1.871v-2.27c0-1.006.483-1.144,1-1.144.478,0,.967.165.967,1.332v.739a4.758,4.758,0,0,1-1.939,3.289l-.825.741h2.52l.113-.083a4.652,4.652,0,0,0,2.035-3.9v-.655C1169.48,278.485,1168.455,277.4,1166.521,277.4Z" transform="translate(-1103.551 -256.024)" fill="#fff"/>
      <path id="Path_83738" data-name="Path 83738" d="M1251.294,275.274c-2.416,0-2.777,1.523-2.777,2.43v.425h1.793l0-.421a.728.728,0,0,1,.194-.558,1.292,1.292,0,0,1,.855-.187c.969,0,1.1.427,1.1.889v.483a4.19,4.19,0,0,0-1.251-.2h-.017a2.805,2.805,0,0,0-2.977,3.137v.918a2.791,2.791,0,0,0,3.106,3.138c1.315,0,2.883-.544,2.883-3.138v-4.317C1254.208,276.2,1253.173,275.274,1251.294,275.274Zm-1.214,5.9c0-.882.377-1.259,1.26-1.259a3.123,3.123,0,0,1,1.12.177v2.158c0,1.225-.573,1.391-1.133,1.391-.617,0-1.247-.181-1.247-1.5Z" transform="translate(-1181.747 -256.024)" fill="#fff"/>
      <path id="Path_83739" data-name="Path 83739" d="M1309.133,275.274c-1.763,0-2.734.887-2.734,2.5v.054l.463,1.791h1.933l-.61-1.791c.017-.62.264-.864.867-.864,1.086,0,1.086.458,1.086.678v4.66a1.449,1.449,0,0,1-.317,1.048,1.307,1.307,0,0,1-.929.289c-.554,0-1.12-.149-1.144-1.238l.767-2.1h-2.031l-.587,1.961v.062a3.05,3.05,0,0,0,.765,2.246,2.985,2.985,0,0,0,2.2.76,2.692,2.692,0,0,0,3.032-2.99v-4.676C1311.893,276.774,1311.535,275.274,1309.133,275.274Z" transform="translate(-1232.787 -256.024)" fill="#fff"/>
      <path id="Path_83740" data-name="Path 83740" d="M1367.166,278.953a1.8,1.8,0,0,0-.6-1.695.764.764,0,0,1-.4-.642v-.425h-1.956l0,.429a1.942,1.942,0,0,0,.925,1.732.524.524,0,0,1,.306.535c-1.1.219-2.326.985-2.326,3.3v.317c0,3.008,1.631,3.639,3,3.639s3-.631,3-3.639v-.292C1369.106,280.035,1368.107,279.229,1367.166,278.953Zm-2.19,3.185c0-1.409.59-1.617,1.106-1.634.611.024,1.23.229,1.226,1.527v.582c0,1.839-.836,1.839-1.192,1.839-.341,0-1.139,0-1.139-1.866Z" transform="translate(-1283.417 -256.835)" fill="#fff"/>
      <path id="Path_83741" data-name="Path 83741" d="M1422.911,275.274c-1.366,0-2.995.57-2.995,3.285v2.164a10.409,10.409,0,0,0,.908,4.2l.112.254h3.746l.107-.267a11.225,11.225,0,0,0,.855-4.185v-2.164C1425.645,275.844,1424.158,275.274,1422.911,275.274Zm-.1,9.579-.158-.3a8.154,8.154,0,0,1-.877-3.829v-2.164c0-1.4.573-1.591,1.134-1.591.24,0,.879,0,.879,1.591v2.164a8.357,8.357,0,0,1-.826,3.833Z" transform="translate(-1333.68 -256.024)" fill="#fff"/>
      <path id="Path_83742" data-name="Path 83742" d="M1480.456,280.548a1.648,1.648,0,0,1-.573-.98l.551-1.7h-1.994l-.32,1.531v.048a2.918,2.918,0,0,0,.79,1.853,2.14,2.14,0,0,1,.567,1.443v.4c0,.919-.365,1.311-1.219,1.311-.543,0-1.166-.188-1.166-1.655v-6.6h-1.807v6.394c0,2.942,1.611,3.56,2.963,3.56a2.737,2.737,0,0,0,3.037-3.085v-.237A3.055,3.055,0,0,0,1480.456,280.548Z" transform="translate(-1382.676 -256.835)" fill="#fff"/>
      <path id="Path_83743" data-name="Path 83743" d="M676.436,447.574a2.034,2.034,0,0,0,.9-1.616,1.752,1.752,0,0,0-1.018-1.741c-.419-.193-.53-.353-.53-.416v-.425h-1.826l0,.422a1.609,1.609,0,0,0,.986,1.5c.465.234.525.489.525.684,0,.177,0,.707-1.065,1.132h-.824v1.71h1.542c.225,0,.6,0,.613.9a2.516,2.516,0,0,1-.391,1.4,1.112,1.112,0,0,1-1.028.519,1.331,1.331,0,0,1-1.117-.55,3.1,3.1,0,0,1-.461-1.859v-2.18a9.646,9.646,0,0,1,.687-3.112l.206-.57h-2.048l-.1.28a9.8,9.8,0,0,0-.621,3.4v2.18a4.353,4.353,0,0,0,.955,3.1,3.328,3.328,0,0,0,2.5,1,3.065,3.065,0,0,0,2.43-1.012,3.921,3.921,0,0,0,.857-2.654A2.413,2.413,0,0,0,676.436,447.574Z" transform="translate(-670.852 -404.775)" fill="#fff"/>
      <path id="Path_83744" data-name="Path 83744" d="M737.369,442.505c-1.763,0-2.734.887-2.734,2.5v.054l.463,1.79h1.933l-.609-1.791c.016-.62.264-.864.867-.864,1.086,0,1.086.441,1.086.678v4.66a1.449,1.449,0,0,1-.317,1.048,1.265,1.265,0,0,1-.92.289h-.009c-.554,0-1.12-.149-1.144-1.238l.768-2.1h-2.031l-.587,1.961v.062a3.052,3.052,0,0,0,.766,2.246,2.985,2.985,0,0,0,2.2.76,2.692,2.692,0,0,0,3.032-2.99V444.9C740.13,444,739.771,442.505,737.369,442.505Z" transform="translate(-726.841 -404.004)" fill="#fff"/>
      <path id="Path_83745" data-name="Path 83745" d="M795.251,446.036a3.647,3.647,0,0,0-1.219.23v-.407c0-.789.307-.789.49-.789h3.138v-1.694H794.5c-1.43,0-2.218.874-2.218,2.462v4.5a2.666,2.666,0,0,0,2.963,3,2.7,2.7,0,0,0,3.037-3v-1.32A2.685,2.685,0,0,0,795.251,446.036Zm-1.166,2a2.8,2.8,0,0,1,1.155-.231c.862,0,1.23.4,1.23,1.343v1.209c0,.913-.338,1.285-1.166,1.285-.854,0-1.219-.408-1.219-1.364Z" transform="translate(-778.29 -404.775)" fill="#fff"/>
      <path id="Path_83746" data-name="Path 83746" d="M853.691,442.948v-.443h-1.632v.249l-.51.189a3.331,3.331,0,0,0-1.916,1.693,4.967,4.967,0,0,0-.554,2.163v1.736a4.707,4.707,0,0,0,.9,2.6,3.727,3.727,0,0,0,5.884-.02,4.843,4.843,0,0,0,.85-2.581V446.8a4.093,4.093,0,0,0-.726-2.208A4.2,4.2,0,0,0,853.691,442.948Zm-1.645,1.724-.1,4.045h1.867l-.1-4.08a1.549,1.549,0,0,1,.65.6,2.781,2.781,0,0,1,.5,1.58v1.689a3.4,3.4,0,0,1-.493,1.592,1.484,1.484,0,0,1-1.445.77,1.514,1.514,0,0,1-1.467-.775,3.406,3.406,0,0,1-.507-1.587v-1.7a4.35,4.35,0,0,1,.218-1.435,1.022,1.022,0,0,1,.68-.628Z" transform="translate(-828.554 -404.004)" fill="#fff"/>
      <path id="Path_83747" data-name="Path 83747" d="M926.835,444.632a2.2,2.2,0,0,0-1.814.938,2.616,2.616,0,0,0-1.351-.845,9.877,9.877,0,0,1,3.635-.526h.451v-1.695h-.425c-2.666,0-4.484.469-5.558,1.435a4.973,4.973,0,0,0-1.608,3.856v.628a4.621,4.621,0,0,0,2.087,3.9l.111.08h2.521l-.855-.745c-1.329-1.159-2-2.248-2-3.237v-.786c0-1.169.484-1.327.958-1.327.764,0,1.076.329,1.076,1.137v2.272h1.871v-2.271c0-1.005.483-1.144,1-1.144.478,0,.967.165.967,1.332v.739a4.758,4.758,0,0,1-1.939,3.288l-.825.741h2.52l.113-.083a4.652,4.652,0,0,0,2.035-3.9v-.655C929.794,445.716,928.769,444.632,926.835,444.632Z" transform="translate(-891.456 -404.004)" fill="#fff"/>
      <path id="Path_83748" data-name="Path 83748" d="M1011.528,442.505c-1.366,0-2.995.57-2.995,3.285v2.164a10.416,10.416,0,0,0,.908,4.2l.112.254h3.747l.107-.267a11.232,11.232,0,0,0,.855-4.185V445.79C1014.262,443.075,1012.775,442.505,1011.528,442.505Zm-.1,9.579-.158-.3a8.154,8.154,0,0,1-.877-3.829V445.79c0-1.4.573-1.591,1.134-1.591.24,0,.879,0,.879,1.591v2.164a8.349,8.349,0,0,1-.826,3.833Z" transform="translate(-969.652 -404.004)" fill="#fff"/>
    </g>
  </g>
</svg>
